<?xml version="1.0" standalone="no"?>
<!DOCTYPE svg PUBLIC "-//W3C//DTD SVG 20010904//EN"
 "http://www.w3.org/TR/2001/REC-SVG-20010904/DTD/svg10.dtd">
<svg version="1.0" xmlns="http://www.w3.org/2000/svg"
 width="300.000000pt" height="226.000000pt" viewBox="0 0 300.000000 226.000000"
 preserveAspectRatio="xMidYMid meet">
<metadata>
Created by potrace 1.10, written by Peter Selinger 2001-2011
</metadata>
<g transform="translate(0.000000,226.000000) scale(0.100000,-0.100000)"
fill="#000000" stroke="none">
<path d="M741 2078 c-89 -46 -86 -31 -86 -433 0 -341 1 -354 21 -381 11 -15
33 -37 48 -48 27 -21 38 -21 762 -24 724 -2 735 -2 774 18 80 41 80 39 80 434
0 327 -1 351 -19 380 -11 17 -35 40 -53 51 -32 19 -53 20 -758 23 l-725 2 -44
-22z m1494 -32 c66 -28 65 -24 65 -403 l0 -343 -29 -32 -29 -33 -204 -1 -203
-1 180 6 c154 5 184 9 208 25 15 10 32 27 37 37 6 10 10 155 10 346 0 356 0
353 -57 382 -15 8 -225 11 -720 11 l-699 0 -34 -29 -35 -29 -3 -298 c-1 -165
0 -318 3 -342 5 -35 14 -48 52 -77 49 -37 39 -46 -23 -20 -63 26 -65 43 -62
415 l3 329 29 30 c16 16 38 32 50 34 11 3 338 5 725 5 568 1 710 -2 736 -12z
m-11 -68 c24 -34 24 -649 0 -672 -14 -14 -94 -16 -728 -16 -540 0 -715 3 -724
12 -9 9 -12 98 -12 339 0 284 2 330 16 343 14 14 93 16 724 16 l709 0 15 -22z
m-1059 -737 c21 -6 -26 -9 -155 -10 -102 0 -179 3 -172 7 18 12 291 14 327 3z"/>
<path d="M1322 1658 c2 -122 7 -183 14 -185 7 -2 13 14 16 42 4 27 16 59 32
80 26 34 28 35 56 20 37 -19 91 -19 116 0 10 8 22 15 26 15 15 0 56 -77 63
-118 4 -24 11 -42 17 -40 5 2 9 7 9 11 -1 4 -1 86 -1 182 l0 175 -175 0 -175
0 2 -182z m213 140 c27 -12 55 -54 55 -83 0 -54 -62 -102 -114 -89 -79 19 -88
144 -12 174 29 12 41 12 71 -2z m-135 -7 c0 -5 -7 -14 -15 -21 -8 -7 -12 -16
-9 -21 3 -5 0 -9 -5 -9 -12 0 -15 43 -4 53 9 10 33 9 33 -2z m230 -23 l-1 -33
-14 25 c-18 32 -18 40 0 40 10 0 15 -10 15 -32z"/>
<path d="M700 1088 c-10 -4 -26 -18 -36 -33 -14 -21 -14 -30 -5 -54 7 -16 24
-33 37 -40 18 -8 247 -11 808 -11 777 0 784 0 810 21 32 25 35 70 6 99 -11 11
-23 20 -27 20 -5 0 -137 1 -296 3 -266 2 -288 1 -293 -15 -8 -26 -32 -29 -224
-26 -164 3 -176 4 -184 23 -8 19 -18 20 -293 20 -156 0 -293 -3 -303 -7z m585
-53 c39 -24 46 -25 216 -25 168 0 178 1 205 23 28 21 36 22 291 25 265 3 303
-1 303 -33 0 -8 -9 -19 -19 -25 -21 -11 -1537 -15 -1565 -4 -21 8 -20 41 2 53
10 6 117 10 272 10 253 0 255 0 295 -24z"/>
<path d="M950 731 l0 -69 -30 15 c-38 18 -80 10 -110 -22 -33 -35 -32 -106 0
-140 31 -33 82 -42 115 -21 14 9 25 12 25 6 0 -5 9 -10 20 -10 19 0 20 7 20
155 0 148 -1 155 -20 155 -18 0 -20 -7 -20 -69z m-18 -98 c22 -20 23 -70 1
-95 -23 -26 -78 -24 -97 4 -33 47 -7 108 46 108 17 0 40 -7 50 -17z"/>
<path d="M2750 645 c0 -141 2 -155 18 -155 15 0 17 14 17 155 0 141 -2 155
-17 155 -16 0 -18 -14 -18 -155z"/>
<path d="M253 780 c-47 -20 -62 -101 -25 -132 8 -7 38 -22 66 -34 56 -22 68
-44 40 -75 -21 -23 -67 -25 -89 -3 -15 15 -18 15 -32 1 -20 -20 -11 -33 33
-47 74 -25 144 16 144 85 0 39 -19 58 -85 82 -37 14 -51 24 -53 41 -7 45 41
67 90 41 16 -8 24 -8 35 3 12 13 12 16 -2 28 -19 16 -93 23 -122 10z"/>
<path d="M1770 635 c0 -144 0 -145 23 -145 21 0 22 3 19 65 l-4 65 57 0 c46 0
60 4 80 25 16 15 25 36 25 55 0 19 -9 40 -25 55 -21 22 -33 25 -100 25 l-75 0
0 -145z m142 98 c42 -37 10 -83 -58 -83 l-44 0 0 50 0 50 42 0 c24 0 49 -7 60
-17z"/>
<path d="M440 710 c0 -25 -4 -30 -25 -30 -16 0 -25 -6 -25 -15 0 -9 9 -15 25
-15 24 0 25 -2 25 -69 0 -79 13 -101 61 -101 22 0 29 5 29 20 0 15 -7 20 -25
20 -24 0 -25 2 -25 65 0 63 1 65 25 65 16 0 25 6 25 15 0 9 -9 15 -25 15 -21
0 -25 5 -25 30 0 23 -4 30 -20 30 -16 0 -20 -7 -20 -30z"/>
<path d="M1510 710 c0 -23 -4 -30 -20 -30 -11 0 -20 -7 -20 -15 0 -8 9 -15 20
-15 18 0 20 -7 20 -65 0 -76 22 -108 68 -103 38 4 42 36 5 40 -27 3 -28 5 -31
66 -3 61 -2 62 23 62 16 0 25 6 25 15 0 9 -9 15 -25 15 -21 0 -25 5 -25 30 0
23 -4 30 -20 30 -16 0 -20 -7 -20 -30z"/>
<path d="M2402 710 c4 -26 1 -30 -19 -30 -14 0 -23 -6 -23 -15 0 -9 9 -15 23
-15 21 0 22 -4 22 -71 0 -78 16 -103 65 -97 36 4 39 36 3 40 -27 3 -28 5 -31
66 l-3 62 31 0 c20 0 30 5 30 15 0 10 -10 15 -30 15 -27 0 -30 3 -30 30 0 24
-4 30 -21 30 -18 0 -21 -5 -17 -30z"/>
<path d="M1094 680 c-56 -22 -79 -93 -49 -150 27 -51 120 -64 159 -21 15 17
15 19 1 25 -9 3 -27 -1 -40 -10 -26 -17 -55 -12 -80 12 -28 28 -16 34 66 34
l81 0 -7 32 c-11 46 -26 66 -59 78 -34 12 -44 12 -72 0z m76 -40 c32 -32 24
-40 -40 -40 -66 0 -79 15 -38 44 30 21 54 20 78 -4z"/>
<path d="M1333 675 c-13 -9 -23 -11 -23 -6 0 6 -9 11 -20 11 -19 0 -20 -7 -20
-95 0 -88 1 -95 20 -95 18 0 20 7 20 68 0 74 10 92 50 92 40 0 50 -18 50 -92
0 -63 2 -68 21 -68 21 0 21 4 17 81 -3 50 -10 85 -19 94 -23 23 -71 28 -96 10z"/>
<path d="M2043 676 c-73 -33 -80 -128 -14 -173 40 -27 61 -29 106 -8 60 29 73
104 28 155 -33 36 -76 45 -120 26z m91 -42 c9 -8 16 -31 16 -49 0 -43 -22 -65
-65 -65 -24 0 -39 7 -49 22 -34 49 -7 108 49 108 18 0 41 -7 49 -16z"/>
<path d="M2310 683 c-8 -3 -21 -12 -27 -21 -12 -14 -13 -14 -13 1 0 10 -8 17
-20 17 -19 0 -20 -7 -20 -95 0 -88 1 -95 20 -95 18 0 20 7 20 63 0 70 17 97
59 97 16 0 21 5 19 17 -3 18 -16 24 -38 16z"/>
<path d="M2568 679 c-16 -6 -28 -15 -28 -19 0 -17 19 -20 44 -9 20 9 32 9 51
1 35 -16 33 -42 -4 -42 -79 0 -128 -48 -96 -96 21 -33 62 -41 99 -20 20 11 32
14 34 7 2 -6 10 -11 18 -11 22 0 20 141 -3 169 -21 25 -76 35 -115 20z m92
-117 c0 -46 -70 -68 -94 -29 -15 24 15 47 61 47 25 0 33 -4 33 -18z"/>
<path d="M570 605 c0 -67 3 -79 25 -100 28 -29 61 -32 93 -9 12 8 22 10 22 5
0 -6 9 -11 20 -11 19 0 20 7 20 95 0 88 -1 95 -20 95 -18 0 -20 -7 -20 -64 0
-73 -14 -96 -60 -96 -34 0 -40 13 -40 96 0 57 -2 64 -20 64 -18 0 -20 -7 -20
-75z"/>
</g>
</svg>
